# xmcd
#
# Track frame offsets: 
#        150
#        28390
#        53031
#        85550
#        102466
#        126864
#        145692
#        165237
#        175383
#        208383
#        229759
#
# Disc length: 3390 seconds
#
# Revision: 0
# Processed by: cddbd v1.5.2PL0 Copyright (c) Steve Scherf et al.
# Submitted via: ExactAudioCopy v1.3
#
DISCID=940d3c0b
DTITLE=Vanessa Wagner - Mozart, Sonate pour piano n°17 - Clementi
DYEAR=2016
DGENRE=Classique
TTITLE0=Mozart, Fantaisie en ré mineur K.397
TTITLE1=Mozart, Sonate pour piano n°17 en si bémol majeur K.570 - I. A
TTITLE1=llegro
TTITLE2=Mozart, Sonate pour piano n°17 en si bémol majeur K.570 - II. 
TTITLE2=Adagio
TTITLE3=Mozart, Sonate pour piano n°17 en si bémol majeur K.570 - III.
TTITLE3=Allegretto
TTITLE4=Clementi, Sonate pour piano en fa majeur op.23 n°2 - I. Allegr
TTITLE4=o con spirito
TTITLE5=Clementi, Sonate pour piano en fa majeur op.23 n°2 - II. Adagi
TTITLE5=o
TTITLE6=Clementi, Sonate pour piano en fa majeur op.23 n°2 - III. Rond
TTITLE6=o: Allegretto con spirito
TTITLE7=Clementi, Sonate pour piano en sol mineur op.50 n°3 'Didone ab
TTITLE7=bandonata' - I. Largo patetico e sostenuto
TTITLE8=Clementi, Sonate pour piano en sol mineur op.50 n°3 'Didone ab
TTITLE8=bandonata' - II. Allegro ma con espressione, deliberando e med
TTITLE8=itando
TTITLE9=Clementi, Sonate pour piano en sol mineur op.50 n°3 'Didone ab
TTITLE9=bandonata' - III. Adagio dolente
TTITLE10=Clementi, Sonate pour piano en sol mineur op.50 n°3 'Didone a
TTITLE10=bbandonata' - IV. Allegro agitato e con disperazione
EXTD=
EXTT0=
EXTT1=
EXTT2=
EXTT3=
EXTT4=
EXTT5=
EXTT6=
EXTT7=
EXTT8=
EXTT9=
EXTT10=
PLAYORDER=
